<svg xmlns="http://www.w3.org/2000/svg"
     width="32"
     height="32"
     viewBox="0 0 24 24"
     fill="white">

  <path d="M12 0C5.373 0 0 5.373 0 12s5.373 12 12 12
           12-5.373 12-12S18.627 0 12 0zm5.503 17.298
           a.748.748 0 0 1-1.03.248c-2.821-1.723-6.372-2.114-10.555-1.164
           a.75.75 0 0 1-.332-1.463c4.579-1.04 8.501-.591
           11.67 1.344a.75.75 0 0 1 .247 1.035zm1.47-3.272
           a.938.938 0 0 1-1.289.31c-3.23-1.984-8.153-2.56-11.974-1.402
           a.938.938 0 1 1-.543-1.795c4.358-1.319
           9.773-.678 13.499 1.611a.937.937 0 0 1 .307 1.276zm.126-3.407
           c-3.873-2.3-10.27-2.512-13.966-1.408
           a1.125 1.125 0 0 1-.646-2.155c4.242-1.271
           11.294-1.026 15.757 1.625a1.125 1.125 0 1 1-1.145 1.938z"/>
</svg>